<mxfile host="Electron" modified="2024-04-21T23:18:41.079Z" agent="Mozilla/5.0 (Windows NT 10.0; Win64; x64) AppleWebKit/537.36 (KHTML, like Gecko) draw.io/24.1.0 Chrome/120.0.6099.109 Electron/28.1.0 Safari/537.36" etag="_KQQrrgWUghLoJV4OW4Q" version="24.1.0" type="device">
  <diagram name="Page-1" id="kEyOBrZnW50bp9X8zvab">
    <mxGraphModel dx="2268" dy="820" grid="1" gridSize="10" guides="1" tooltips="1" connect="1" arrows="1" fold="1" page="1" pageScale="1" pageWidth="850" pageHeight="1100" math="0" shadow="0">
      <root>
        <mxCell id="0" />
        <mxCell id="1" parent="0" />
        <mxCell id="FJ6N67DX9rDBKTZWtsUU-1" value="USE CASE (cửa hàng bán LEGO)" style="swimlane;whiteSpace=wrap;html=1;startSize=23;" parent="1" vertex="1">
          <mxGeometry x="-40" y="50" width="920" height="1027" as="geometry" />
        </mxCell>
        <mxCell id="FJ6N67DX9rDBKTZWtsUU-6" value="Quản lí&lt;br&gt;chuyến xe" style="ellipse;whiteSpace=wrap;html=1;" parent="FJ6N67DX9rDBKTZWtsUU-1" vertex="1">
          <mxGeometry x="80" y="200" width="100" height="60" as="geometry" />
        </mxCell>
        <mxCell id="FJ6N67DX9rDBKTZWtsUU-7" value="Thống kê" style="ellipse;whiteSpace=wrap;html=1;" parent="FJ6N67DX9rDBKTZWtsUU-1" vertex="1">
          <mxGeometry x="80" y="637" width="100" height="60" as="geometry" />
        </mxCell>
        <mxCell id="FJ6N67DX9rDBKTZWtsUU-8" value="Quản lí&lt;br&gt;tuyến xe" style="ellipse;whiteSpace=wrap;html=1;" parent="FJ6N67DX9rDBKTZWtsUU-1" vertex="1">
          <mxGeometry x="80" y="316.99" width="100" height="60" as="geometry" />
        </mxCell>
        <mxCell id="GVsq5gMdiF2ysWeXasHW-25" value="Đăng nhập" style="ellipse;whiteSpace=wrap;html=1;" parent="FJ6N67DX9rDBKTZWtsUU-1" vertex="1">
          <mxGeometry x="465" y="117" width="100" height="60" as="geometry" />
        </mxCell>
        <mxCell id="GVsq5gMdiF2ysWeXasHW-35" value="Đăng ký" style="ellipse;whiteSpace=wrap;html=1;" parent="FJ6N67DX9rDBKTZWtsUU-1" vertex="1">
          <mxGeometry x="625" y="37" width="100" height="60" as="geometry" />
        </mxCell>
        <mxCell id="GVsq5gMdiF2ysWeXasHW-36" value="Xem thông tin cá nhân" style="ellipse;whiteSpace=wrap;html=1;" parent="FJ6N67DX9rDBKTZWtsUU-1" vertex="1">
          <mxGeometry x="705" y="260" width="100" height="60" as="geometry" />
        </mxCell>
        <mxCell id="GVsq5gMdiF2ysWeXasHW-37" value="Đăng xuất" style="ellipse;whiteSpace=wrap;html=1;" parent="FJ6N67DX9rDBKTZWtsUU-1" vertex="1">
          <mxGeometry x="465" y="217" width="100" height="60" as="geometry" />
        </mxCell>
        <mxCell id="GVsq5gMdiF2ysWeXasHW-38" value="Tìm Kiếm" style="ellipse;whiteSpace=wrap;html=1;" parent="FJ6N67DX9rDBKTZWtsUU-1" vertex="1">
          <mxGeometry x="705" y="400" width="100" height="60" as="geometry" />
        </mxCell>
        <mxCell id="CWL4XXoRnjnW_8XZfZUp-23" value="Thêm/Sửa/Xóa" style="shape=note;whiteSpace=wrap;html=1;backgroundOutline=1;darkOpacity=0.05;size=18;" parent="FJ6N67DX9rDBKTZWtsUU-1" vertex="1">
          <mxGeometry x="242.5" y="327.87" width="117.5" height="38.25" as="geometry" />
        </mxCell>
        <mxCell id="CWL4XXoRnjnW_8XZfZUp-26" value="" style="endArrow=none;dashed=1;html=1;rounded=0;entryX=1;entryY=0.5;entryDx=0;entryDy=0;exitX=0;exitY=0.5;exitDx=0;exitDy=0;exitPerimeter=0;" parent="FJ6N67DX9rDBKTZWtsUU-1" source="CWL4XXoRnjnW_8XZfZUp-23" target="FJ6N67DX9rDBKTZWtsUU-8" edge="1">
          <mxGeometry width="50" height="50" relative="1" as="geometry">
            <mxPoint x="120" y="530" as="sourcePoint" />
            <mxPoint x="170" y="480" as="targetPoint" />
          </mxGeometry>
        </mxCell>
        <mxCell id="CWL4XXoRnjnW_8XZfZUp-28" value="Thêm/Sửa/Xóa" style="shape=note;whiteSpace=wrap;html=1;backgroundOutline=1;darkOpacity=0.05;size=18;" parent="FJ6N67DX9rDBKTZWtsUU-1" vertex="1">
          <mxGeometry x="242.5" y="206.25" width="115" height="47.5" as="geometry" />
        </mxCell>
        <mxCell id="CWL4XXoRnjnW_8XZfZUp-30" value="" style="endArrow=none;dashed=1;html=1;rounded=0;exitX=0;exitY=0.5;exitDx=0;exitDy=0;exitPerimeter=0;entryX=1;entryY=0.5;entryDx=0;entryDy=0;" parent="FJ6N67DX9rDBKTZWtsUU-1" source="CWL4XXoRnjnW_8XZfZUp-28" target="FJ6N67DX9rDBKTZWtsUU-6" edge="1">
          <mxGeometry width="50" height="50" relative="1" as="geometry">
            <mxPoint x="215" y="455" as="sourcePoint" />
            <mxPoint x="145" y="267" as="targetPoint" />
          </mxGeometry>
        </mxCell>
        <mxCell id="CWL4XXoRnjnW_8XZfZUp-34" value="&amp;lt;&amp;lt;include&amp;gt;&amp;gt;" style="html=1;verticalAlign=bottom;labelBackgroundColor=none;endArrow=open;endFill=0;dashed=1;rounded=0;entryX=0;entryY=0.5;entryDx=0;entryDy=0;exitX=0.5;exitY=0;exitDx=0;exitDy=0;" parent="FJ6N67DX9rDBKTZWtsUU-1" source="GVsq5gMdiF2ysWeXasHW-25" target="GVsq5gMdiF2ysWeXasHW-35" edge="1">
          <mxGeometry width="160" relative="1" as="geometry">
            <mxPoint x="435" y="197" as="sourcePoint" />
            <mxPoint x="595" y="197" as="targetPoint" />
          </mxGeometry>
        </mxCell>
        <mxCell id="CWL4XXoRnjnW_8XZfZUp-35" value="&amp;lt;&amp;lt;include&amp;gt;&amp;gt;" style="html=1;verticalAlign=bottom;labelBackgroundColor=none;endArrow=open;endFill=0;dashed=1;rounded=0;exitX=0.5;exitY=0;exitDx=0;exitDy=0;entryX=0.5;entryY=1;entryDx=0;entryDy=0;" parent="FJ6N67DX9rDBKTZWtsUU-1" source="GVsq5gMdiF2ysWeXasHW-37" target="GVsq5gMdiF2ysWeXasHW-25" edge="1">
          <mxGeometry width="160" relative="1" as="geometry">
            <mxPoint x="560" y="136" as="sourcePoint" />
            <mxPoint x="575" y="207" as="targetPoint" />
          </mxGeometry>
        </mxCell>
        <mxCell id="CWL4XXoRnjnW_8XZfZUp-40" value="Chuyến xe" style="shape=note;whiteSpace=wrap;html=1;backgroundOutline=1;darkOpacity=0.05;size=18;" parent="FJ6N67DX9rDBKTZWtsUU-1" vertex="1">
          <mxGeometry x="560" y="413" width="100" height="34" as="geometry" />
        </mxCell>
        <mxCell id="CWL4XXoRnjnW_8XZfZUp-96" value="Thanh toán" style="ellipse;whiteSpace=wrap;html=1;" parent="FJ6N67DX9rDBKTZWtsUU-1" vertex="1">
          <mxGeometry x="545" y="697" width="100" height="50" as="geometry" />
        </mxCell>
        <mxCell id="CWL4XXoRnjnW_8XZfZUp-100" value="COD" style="ellipse;whiteSpace=wrap;html=1;" parent="FJ6N67DX9rDBKTZWtsUU-1" vertex="1">
          <mxGeometry x="465" y="787" width="100" height="50" as="geometry" />
        </mxCell>
        <mxCell id="CWL4XXoRnjnW_8XZfZUp-101" value="ONLINE" style="ellipse;whiteSpace=wrap;html=1;" parent="FJ6N67DX9rDBKTZWtsUU-1" vertex="1">
          <mxGeometry x="635" y="787" width="100" height="50" as="geometry" />
        </mxCell>
        <mxCell id="CWL4XXoRnjnW_8XZfZUp-102" value="VN Pay" style="shape=note;whiteSpace=wrap;html=1;backgroundOutline=1;darkOpacity=0.05;size=18;" parent="FJ6N67DX9rDBKTZWtsUU-1" vertex="1">
          <mxGeometry x="576.25" y="887" width="217.5" height="55" as="geometry" />
        </mxCell>
        <mxCell id="CWL4XXoRnjnW_8XZfZUp-105" value="" style="endArrow=none;dashed=1;html=1;rounded=0;entryX=0.5;entryY=0;entryDx=0;entryDy=0;entryPerimeter=0;exitX=0.5;exitY=1;exitDx=0;exitDy=0;" parent="FJ6N67DX9rDBKTZWtsUU-1" source="CWL4XXoRnjnW_8XZfZUp-101" target="CWL4XXoRnjnW_8XZfZUp-102" edge="1">
          <mxGeometry width="50" height="50" relative="1" as="geometry">
            <mxPoint x="645" y="837" as="sourcePoint" />
            <mxPoint x="435" y="697" as="targetPoint" />
          </mxGeometry>
        </mxCell>
        <mxCell id="CWL4XXoRnjnW_8XZfZUp-111" value="Xem Chi tiết các giao dịch" style="ellipse;whiteSpace=wrap;html=1;" parent="FJ6N67DX9rDBKTZWtsUU-1" vertex="1">
          <mxGeometry x="80" y="757" width="100" height="60" as="geometry" />
        </mxCell>
        <mxCell id="CWL4XXoRnjnW_8XZfZUp-119" value="&amp;lt;&amp;lt;extend&amp;gt;&amp;gt;" style="html=1;verticalAlign=bottom;labelBackgroundColor=none;endArrow=open;endFill=0;dashed=1;rounded=0;entryX=0.5;entryY=0;entryDx=0;entryDy=0;exitX=0;exitY=1;exitDx=0;exitDy=0;" parent="FJ6N67DX9rDBKTZWtsUU-1" source="CWL4XXoRnjnW_8XZfZUp-96" target="CWL4XXoRnjnW_8XZfZUp-100" edge="1">
          <mxGeometry width="160" relative="1" as="geometry">
            <mxPoint x="745" y="707" as="sourcePoint" />
            <mxPoint x="805" y="779" as="targetPoint" />
          </mxGeometry>
        </mxCell>
        <mxCell id="CWL4XXoRnjnW_8XZfZUp-120" value="&amp;lt;&amp;lt;extend&amp;gt;&amp;gt;" style="html=1;verticalAlign=bottom;labelBackgroundColor=none;endArrow=open;endFill=0;dashed=1;rounded=0;entryX=0.5;entryY=0;entryDx=0;entryDy=0;exitX=1;exitY=1;exitDx=0;exitDy=0;" parent="FJ6N67DX9rDBKTZWtsUU-1" source="CWL4XXoRnjnW_8XZfZUp-96" target="CWL4XXoRnjnW_8XZfZUp-101" edge="1">
          <mxGeometry width="160" relative="1" as="geometry">
            <mxPoint x="735" y="707" as="sourcePoint" />
            <mxPoint x="795" y="779" as="targetPoint" />
          </mxGeometry>
        </mxCell>
        <mxCell id="MgHE80L_jPGbks2D7R73-1" value="Tháng/Năm" style="shape=note;whiteSpace=wrap;html=1;backgroundOutline=1;darkOpacity=0.05;size=18;" parent="FJ6N67DX9rDBKTZWtsUU-1" vertex="1">
          <mxGeometry x="235" y="639.5" width="165" height="55" as="geometry" />
        </mxCell>
        <mxCell id="MgHE80L_jPGbks2D7R73-2" value="" style="endArrow=none;dashed=1;html=1;rounded=0;exitX=1;exitY=0.5;exitDx=0;exitDy=0;entryX=0;entryY=0.5;entryDx=0;entryDy=0;entryPerimeter=0;" parent="FJ6N67DX9rDBKTZWtsUU-1" source="FJ6N67DX9rDBKTZWtsUU-7" target="MgHE80L_jPGbks2D7R73-1" edge="1">
          <mxGeometry width="50" height="50" relative="1" as="geometry">
            <mxPoint x="215" y="467" as="sourcePoint" />
            <mxPoint x="265" y="417" as="targetPoint" />
          </mxGeometry>
        </mxCell>
        <mxCell id="MgHE80L_jPGbks2D7R73-6" value="Đặt vé xe" style="ellipse;whiteSpace=wrap;html=1;" parent="FJ6N67DX9rDBKTZWtsUU-1" vertex="1">
          <mxGeometry x="545" y="560" width="100" height="50" as="geometry" />
        </mxCell>
        <mxCell id="MgHE80L_jPGbks2D7R73-8" value="&amp;lt;&amp;lt;include&amp;gt;&amp;gt;" style="html=1;verticalAlign=bottom;labelBackgroundColor=none;endArrow=open;endFill=0;dashed=1;rounded=0;exitX=0.567;exitY=0.003;exitDx=0;exitDy=0;exitPerimeter=0;entryX=0.586;entryY=1.067;entryDx=0;entryDy=0;entryPerimeter=0;" parent="FJ6N67DX9rDBKTZWtsUU-1" source="CWL4XXoRnjnW_8XZfZUp-96" target="MgHE80L_jPGbks2D7R73-6" edge="1">
          <mxGeometry width="160" relative="1" as="geometry">
            <mxPoint x="611.62" y="684.56" as="sourcePoint" />
            <mxPoint x="599.9965537457152" y="600.0029292828667" as="targetPoint" />
          </mxGeometry>
        </mxCell>
        <mxCell id="J_4oeLuLB-r0K-2xohyr-1" value="Cập nhật&lt;br&gt;thông tin cá nhân" style="ellipse;whiteSpace=wrap;html=1;" vertex="1" parent="FJ6N67DX9rDBKTZWtsUU-1">
          <mxGeometry x="545" y="290" width="100" height="60" as="geometry" />
        </mxCell>
        <mxCell id="J_4oeLuLB-r0K-2xohyr-4" value="" style="endArrow=none;html=1;rounded=0;exitX=1;exitY=0.5;exitDx=0;exitDy=0;edgeStyle=orthogonalEdgeStyle;" edge="1" parent="FJ6N67DX9rDBKTZWtsUU-1" source="GVsq5gMdiF2ysWeXasHW-36">
          <mxGeometry width="50" height="50" relative="1" as="geometry">
            <mxPoint x="860" y="425" as="sourcePoint" />
            <mxPoint x="900" y="430" as="targetPoint" />
          </mxGeometry>
        </mxCell>
        <mxCell id="J_4oeLuLB-r0K-2xohyr-6" value="" style="endArrow=none;html=1;rounded=0;edgeStyle=orthogonalEdgeStyle;" edge="1" parent="FJ6N67DX9rDBKTZWtsUU-1" source="GVsq5gMdiF2ysWeXasHW-25">
          <mxGeometry width="50" height="50" relative="1" as="geometry">
            <mxPoint x="725" y="137" as="sourcePoint" />
            <mxPoint x="900" y="430" as="targetPoint" />
          </mxGeometry>
        </mxCell>
        <mxCell id="J_4oeLuLB-r0K-2xohyr-8" value="" style="endArrow=none;html=1;rounded=0;edgeStyle=orthogonalEdgeStyle;exitX=0;exitY=0.5;exitDx=0;exitDy=0;" edge="1" parent="FJ6N67DX9rDBKTZWtsUU-1" source="FJ6N67DX9rDBKTZWtsUU-6">
          <mxGeometry width="50" height="50" relative="1" as="geometry">
            <mxPoint x="90" y="470" as="sourcePoint" />
            <mxPoint x="20" y="430" as="targetPoint" />
            <Array as="points">
              <mxPoint x="20" y="230" />
            </Array>
          </mxGeometry>
        </mxCell>
        <mxCell id="J_4oeLuLB-r0K-2xohyr-9" value="" style="endArrow=none;html=1;rounded=0;edgeStyle=orthogonalEdgeStyle;entryX=0;entryY=0.5;entryDx=0;entryDy=0;" edge="1" parent="FJ6N67DX9rDBKTZWtsUU-1" target="FJ6N67DX9rDBKTZWtsUU-7">
          <mxGeometry width="50" height="50" relative="1" as="geometry">
            <mxPoint x="20" y="430" as="sourcePoint" />
            <mxPoint x="30" y="603" as="targetPoint" />
            <Array as="points">
              <mxPoint x="20" y="667" />
            </Array>
          </mxGeometry>
        </mxCell>
        <mxCell id="J_4oeLuLB-r0K-2xohyr-10" value="" style="endArrow=none;html=1;rounded=0;edgeStyle=orthogonalEdgeStyle;" edge="1" parent="FJ6N67DX9rDBKTZWtsUU-1" target="CWL4XXoRnjnW_8XZfZUp-111">
          <mxGeometry width="50" height="50" relative="1" as="geometry">
            <mxPoint x="20" y="430" as="sourcePoint" />
            <mxPoint x="60" y="786.97" as="targetPoint" />
            <Array as="points">
              <mxPoint x="20" y="787" />
            </Array>
          </mxGeometry>
        </mxCell>
        <mxCell id="J_4oeLuLB-r0K-2xohyr-11" value="" style="endArrow=none;html=1;rounded=0;edgeStyle=orthogonalEdgeStyle;exitX=0;exitY=0.5;exitDx=0;exitDy=0;" edge="1" parent="FJ6N67DX9rDBKTZWtsUU-1" source="GVsq5gMdiF2ysWeXasHW-25">
          <mxGeometry width="50" height="50" relative="1" as="geometry">
            <mxPoint x="80" y="150" as="sourcePoint" />
            <mxPoint x="20" y="350" as="targetPoint" />
            <Array as="points">
              <mxPoint x="465" y="150" />
              <mxPoint x="20" y="150" />
            </Array>
          </mxGeometry>
        </mxCell>
        <mxCell id="J_4oeLuLB-r0K-2xohyr-13" value="Quản lí&lt;br&gt;giá vé" style="ellipse;whiteSpace=wrap;html=1;" vertex="1" parent="FJ6N67DX9rDBKTZWtsUU-1">
          <mxGeometry x="80" y="410" width="100" height="63.01" as="geometry" />
        </mxCell>
        <mxCell id="J_4oeLuLB-r0K-2xohyr-14" value="Thêm/Sửa/Xóa" style="shape=note;whiteSpace=wrap;html=1;backgroundOutline=1;darkOpacity=0.05;size=18;" vertex="1" parent="FJ6N67DX9rDBKTZWtsUU-1">
          <mxGeometry x="241.25" y="421.75" width="117.5" height="38.25" as="geometry" />
        </mxCell>
        <mxCell id="J_4oeLuLB-r0K-2xohyr-17" value="" style="endArrow=none;dashed=1;html=1;rounded=0;entryX=1;entryY=0.5;entryDx=0;entryDy=0;exitX=0;exitY=0.5;exitDx=0;exitDy=0;exitPerimeter=0;" edge="1" parent="FJ6N67DX9rDBKTZWtsUU-1">
          <mxGeometry width="50" height="50" relative="1" as="geometry">
            <mxPoint x="243" y="440.53" as="sourcePoint" />
            <mxPoint x="180" y="440.53" as="targetPoint" />
          </mxGeometry>
        </mxCell>
        <mxCell id="J_4oeLuLB-r0K-2xohyr-20" value="" style="endArrow=none;dashed=1;html=1;rounded=0;" edge="1" parent="FJ6N67DX9rDBKTZWtsUU-1" source="GVsq5gMdiF2ysWeXasHW-38" target="CWL4XXoRnjnW_8XZfZUp-40">
          <mxGeometry width="50" height="50" relative="1" as="geometry">
            <mxPoint x="690" y="430" as="sourcePoint" />
            <mxPoint x="645" y="429.65999999999997" as="targetPoint" />
          </mxGeometry>
        </mxCell>
        <mxCell id="J_4oeLuLB-r0K-2xohyr-22" value="Tìm Kiếm" style="ellipse;whiteSpace=wrap;html=1;" vertex="1" parent="FJ6N67DX9rDBKTZWtsUU-1">
          <mxGeometry x="80" y="520" width="100" height="60" as="geometry" />
        </mxCell>
        <mxCell id="J_4oeLuLB-r0K-2xohyr-23" value="" style="endArrow=none;html=1;rounded=0;edgeStyle=orthogonalEdgeStyle;exitX=0;exitY=0.5;exitDx=0;exitDy=0;" edge="1" parent="FJ6N67DX9rDBKTZWtsUU-1">
          <mxGeometry width="50" height="50" relative="1" as="geometry">
            <mxPoint x="80" y="550" as="sourcePoint" />
            <mxPoint x="20" y="633" as="targetPoint" />
            <Array as="points">
              <mxPoint x="20" y="550" />
            </Array>
          </mxGeometry>
        </mxCell>
        <mxCell id="J_4oeLuLB-r0K-2xohyr-25" value="Chuyến xe/khách hàng /tuyến xe/vé xe&amp;nbsp;" style="shape=note;whiteSpace=wrap;html=1;backgroundOutline=1;darkOpacity=0.05;size=14;" vertex="1" parent="FJ6N67DX9rDBKTZWtsUU-1">
          <mxGeometry x="235" y="520" width="160" height="59.12" as="geometry" />
        </mxCell>
        <mxCell id="J_4oeLuLB-r0K-2xohyr-26" value="" style="endArrow=none;dashed=1;html=1;rounded=0;" edge="1" parent="FJ6N67DX9rDBKTZWtsUU-1" source="J_4oeLuLB-r0K-2xohyr-25" target="J_4oeLuLB-r0K-2xohyr-22">
          <mxGeometry width="50" height="50" relative="1" as="geometry">
            <mxPoint x="230" y="550" as="sourcePoint" />
            <mxPoint x="180" y="549.27" as="targetPoint" />
          </mxGeometry>
        </mxCell>
        <mxCell id="J_4oeLuLB-r0K-2xohyr-29" value="" style="endArrow=none;dashed=1;html=1;rounded=0;" edge="1" parent="FJ6N67DX9rDBKTZWtsUU-1" source="J_4oeLuLB-r0K-2xohyr-1" target="GVsq5gMdiF2ysWeXasHW-36">
          <mxGeometry width="50" height="50" relative="1" as="geometry">
            <mxPoint x="645" y="319.71" as="sourcePoint" />
            <mxPoint x="700" y="319.71" as="targetPoint" />
          </mxGeometry>
        </mxCell>
        <mxCell id="J_4oeLuLB-r0K-2xohyr-30" value="&amp;lt;&amp;lt;extend&amp;gt;&amp;gt;" style="html=1;verticalAlign=bottom;labelBackgroundColor=none;endArrow=open;endFill=0;dashed=1;rounded=0;" edge="1" parent="FJ6N67DX9rDBKTZWtsUU-1">
          <mxGeometry width="160" relative="1" as="geometry">
            <mxPoint x="599" y="450" as="sourcePoint" />
            <mxPoint x="599" y="560" as="targetPoint" />
          </mxGeometry>
        </mxCell>
        <mxCell id="FJ6N67DX9rDBKTZWtsUU-2" value="Quản trị&lt;br&gt;viên" style="shape=umlActor;verticalLabelPosition=bottom;verticalAlign=top;html=1;outlineConnect=0;" parent="1" vertex="1">
          <mxGeometry x="-170" y="460" width="40" height="60" as="geometry" />
        </mxCell>
        <mxCell id="FJ6N67DX9rDBKTZWtsUU-5" value="Người&lt;br&gt;dùng" style="shape=umlActor;verticalLabelPosition=bottom;verticalAlign=top;html=1;outlineConnect=0;" parent="1" vertex="1">
          <mxGeometry x="1010" y="460" width="40" height="60" as="geometry" />
        </mxCell>
        <mxCell id="CWL4XXoRnjnW_8XZfZUp-38" value="" style="endArrow=none;html=1;rounded=0;exitX=1;exitY=0.5;exitDx=0;exitDy=0;entryX=0;entryY=0.3333333333333333;entryDx=0;entryDy=0;entryPerimeter=0;" parent="1" source="GVsq5gMdiF2ysWeXasHW-38" target="FJ6N67DX9rDBKTZWtsUU-5" edge="1">
          <mxGeometry width="50" height="50" relative="1" as="geometry">
            <mxPoint x="600" y="479.40999999999997" as="sourcePoint" />
            <mxPoint x="960" y="330" as="targetPoint" />
          </mxGeometry>
        </mxCell>
        <mxCell id="J_4oeLuLB-r0K-2xohyr-7" value="" style="endArrow=none;html=1;rounded=0;edgeStyle=orthogonalEdgeStyle;exitX=0;exitY=0.5;exitDx=0;exitDy=0;" edge="1" parent="1" source="FJ6N67DX9rDBKTZWtsUU-8">
          <mxGeometry width="50" height="50" relative="1" as="geometry">
            <mxPoint x="-150" y="380" as="sourcePoint" />
            <mxPoint x="-20" y="480" as="targetPoint" />
            <Array as="points">
              <mxPoint x="-20" y="397" />
            </Array>
          </mxGeometry>
        </mxCell>
        <mxCell id="J_4oeLuLB-r0K-2xohyr-12" value="" style="endArrow=none;html=1;rounded=0;edgeStyle=orthogonalEdgeStyle;exitX=0;exitY=0.5;exitDx=0;exitDy=0;" edge="1" parent="1" source="J_4oeLuLB-r0K-2xohyr-13" target="FJ6N67DX9rDBKTZWtsUU-2">
          <mxGeometry width="50" height="50" relative="1" as="geometry">
            <mxPoint x="-20" y="490" as="sourcePoint" />
            <mxPoint x="-110" y="530" as="targetPoint" />
            <Array as="points">
              <mxPoint x="40" y="490" />
            </Array>
          </mxGeometry>
        </mxCell>
      </root>
    </mxGraphModel>
  </diagram>
</mxfile>
